<svg width="286" height="215" viewBox="0 0 286 215" fill="none" xmlns="http://www.w3.org/2000/svg">
<path d="M109.673 141.58C107.489 138.668 104.749 136.299 101.453 134.446C98.1445 132.606 94.2134 131.68 89.6206 131.68H84.3262C82.5923 131.68 80.8849 131.786 79.204 132.011C81.9967 124.4 84.6571 117.041 87.1719 109.933C89.6868 102.826 91.9236 96.4459 93.8825 90.7942C95.8414 85.1425 97.4695 80.4438 98.7533 76.698C100.037 72.9523 100.845 70.636 101.189 69.7359C101.864 68.28 101.162 66.5461 99.0975 64.5342C97.0194 62.5224 94.5311 60.6164 91.6324 58.8296C88.7205 57.0427 85.9013 55.5074 83.1615 54.2103C80.4217 52.9264 78.7672 52.2778 78.2113 52.2778C77.4303 53.6147 76.5833 55.0706 75.6964 56.6457C74.9155 58.1016 73.9625 59.7826 72.8375 61.6753C71.7125 63.5813 70.5477 65.6461 69.3168 67.8829C67.5299 65.977 65.1475 64.1636 62.1826 62.4297C59.2178 60.6958 56.0809 59.187 52.7852 57.9031C49.4894 56.6192 46.326 55.5868 43.3083 54.7926C40.2905 54.0117 37.7624 53.6147 35.7506 53.6147C34.4138 53.6147 32.8122 54.5147 30.9724 56.3015C29.1326 58.0884 27.2002 60.4708 25.1751 63.4357C23.1633 66.4005 21.1514 69.8154 19.1263 73.6802C17.1145 77.5451 15.3276 81.4894 13.7526 85.5131C12.1907 89.5368 10.8936 93.5473 9.88769 97.518C8.88176 101.489 8.3788 105.102 8.3788 108.345C8.3788 110.251 9.58326 112.342 11.9922 114.632C14.4011 116.922 17.2468 119.106 20.5558 121.184C23.8515 123.262 27.2399 125.155 30.7077 126.888C34.1755 128.622 37.0345 129.933 39.2713 130.833C40.3831 131.508 41.5082 131.839 42.6332 131.839C43.4142 131.839 44.7642 130.502 46.6569 127.815C48.5629 125.128 50.7733 121.66 53.2881 117.412C55.8029 113.163 58.5428 108.371 61.5076 103.064C64.4724 97.7563 67.4108 92.4619 70.3227 87.2073C68.0858 94.712 65.5445 102.587 62.6856 110.873C59.8266 119.159 56.8353 127.431 53.7117 135.717C45.651 137.623 38.3183 140.085 31.7269 143.102C25.1222 146.12 19.4705 149.482 14.7717 153.175C10.073 156.868 6.43312 160.759 3.86536 164.836C1.2976 168.926 0.000488281 173.029 0.000488281 177.172C0.000488281 185.113 1.15201 191.493 3.44182 196.311C5.73162 201.115 8.59057 204.874 12.0054 207.561C15.4203 210.248 19.0601 212.035 22.9118 212.935C26.7767 213.835 30.2709 214.272 33.4078 214.272C35.8697 214.272 38.6095 212.617 41.6273 209.321C44.6451 206.026 47.7555 201.631 50.9454 196.152C54.1352 190.672 57.378 184.319 60.687 177.105C63.9827 169.892 67.252 162.308 70.508 154.366C76.7686 154.472 82.0364 155.266 86.2851 156.722C90.5339 158.178 93.9487 160.018 96.5297 162.268C99.0975 164.505 100.924 166.993 101.983 169.733C103.042 172.473 103.584 175.08 103.584 177.542C103.584 178.548 104.233 178.627 105.517 177.794C106.801 176.96 108.257 175.663 109.885 173.929C111.499 172.195 112.969 170.262 114.253 168.131C115.536 166 116.185 164.161 116.185 162.586C116.185 158.893 115.656 155.2 114.583 151.507C113.525 147.814 111.897 144.519 109.713 141.607L109.673 141.58ZM59.9061 83.6733C57.4442 87.697 55.0352 91.5884 52.6925 95.3341C50.3498 99.0799 48.0732 102.614 45.8893 105.91C43.7053 109.205 41.7464 111.919 40.0125 114.05C38.2786 116.181 36.9021 117.637 35.8962 118.417C34.8902 119.198 34.3343 118.973 34.2152 117.742C34.5461 115.506 35.2211 112.792 36.2271 109.602C37.233 106.413 38.4375 103.051 39.8405 99.5299C41.2435 96.0092 42.7788 92.5414 44.4598 89.1265C46.1407 85.7116 47.9011 82.6409 49.7409 79.9011C51.5807 77.1613 53.4602 74.9509 55.3661 73.2699C57.2721 71.589 59.059 70.7551 60.7399 70.7551C61.9708 70.7551 63.0562 70.9007 64.0092 71.1787C64.9622 71.4566 65.8754 71.761 66.7755 72.1052C64.6445 75.798 62.3547 79.6629 59.8928 83.6866L59.9061 83.6733ZM38.0801 174.061C35.8432 179.038 33.8049 183.353 31.9519 186.979C30.1121 190.619 28.4311 193.465 26.9223 195.543C25.4134 197.608 24.2618 198.653 23.4809 198.653C23.2559 198.653 22.9515 198.481 22.5544 198.15C22.1573 197.819 21.7735 197.065 21.3764 195.887C20.9793 194.709 20.6484 193.002 20.3705 190.765C20.0925 188.528 19.9469 185.444 19.9469 181.539C19.9469 176.391 22.2632 171.745 26.909 167.602C31.5548 163.459 37.5639 160.216 44.9495 157.86C42.5935 163.684 40.3037 169.071 38.0669 174.061H38.0801Z" fill="#FF8C1E"/>
<path d="M149.963 82.3232C150.44 81.185 150.916 80.0202 151.393 78.8819L121.678 118.417C122.578 112.819 123.941 107.061 125.794 101.131C127.634 95.2017 129.567 89.6294 131.592 84.4277C133.604 79.226 135.509 74.6994 137.296 70.8345C139.083 66.9696 140.314 64.2563 140.989 62.6944C141.439 61.7944 141.214 60.7355 140.314 59.5046C139.414 58.2737 138.183 57.0162 136.621 55.7324C135.059 54.4485 133.259 53.1911 131.248 51.9601C129.236 50.7292 127.303 49.6439 125.45 48.6909C123.597 47.7379 121.982 46.957 120.579 46.3349C119.176 45.726 118.316 45.4084 117.972 45.4084C117.972 45.8584 117.416 47.3938 116.291 50.0277C115.166 52.6616 113.776 55.9574 112.095 59.9281C110.414 63.8989 108.574 68.3197 106.563 73.1905C104.551 78.0613 102.698 82.9586 101.03 87.8823C99.3491 92.8061 97.9593 97.5577 96.8343 102.151C95.7225 106.743 95.1533 110.661 95.1533 113.904C95.1533 115.585 96.1328 117.491 98.0917 119.609C100.051 121.74 102.367 123.804 105.054 125.816C107.741 127.828 110.454 129.615 113.194 131.19C115.934 132.752 118.091 133.824 119.653 134.38C120.553 134.936 121.413 135.439 122.26 135.889C123.094 136.339 123.968 136.564 124.855 136.564C125.186 136.564 126.006 135.756 127.29 134.128C128.574 132.5 130.175 130.356 132.068 127.669C133.908 125.075 135.933 122.124 138.157 118.841C138.58 115.175 139.652 110.674 141.386 105.354C143.676 98.2989 146.535 90.6354 149.95 82.3629L149.963 82.3232Z" fill="#FF8C1E"/>
<path d="M124.868 33.5755C127.224 35.5344 129.844 37.2948 132.756 38.8567C135.668 40.4317 138.487 41.6891 141.227 42.6289C143.967 43.5819 145.727 44.0584 146.521 44.0584C146.521 42.8274 146.852 41.12 147.527 38.9361C148.202 36.7521 149.036 34.4359 150.042 31.974C151.048 29.5121 152.107 27.0238 153.232 24.509C154.344 21.9942 155.35 19.7308 156.25 17.7057C156.7 16.8057 156.475 15.7468 155.575 14.5159C154.675 13.2849 153.444 12.0275 151.882 10.7437C150.32 9.45978 148.52 8.20237 146.508 6.97143C144.496 5.7405 142.564 4.65516 140.711 3.70217C138.858 2.74919 137.243 1.96827 135.84 1.34619C134.437 0.737339 133.577 0.419678 133.233 0.419678C133.233 1.20059 132.611 2.63007 131.393 4.69486C130.162 6.7729 128.785 9.14212 127.277 11.829C125.768 14.5159 124.391 17.2822 123.16 20.1411C121.929 23.0001 121.307 25.5414 121.307 27.7782C121.307 29.6842 122.485 31.6166 124.828 33.5755H124.868Z" fill="#FF8C1E"/>
<path d="M228.597 56.3148C227.26 54.0779 225.685 52.066 223.899 50.2792C222.112 48.4923 220.206 47.5923 218.194 47.5923C216.288 47.5923 213.826 48.5718 210.808 50.5307C207.79 52.4896 204.455 55.097 200.828 58.3398C197.189 61.5826 193.443 65.3284 189.578 69.5903C185.713 73.839 181.941 78.2069 178.248 82.6806C181.266 75.97 184.376 69.3388 187.566 62.7871C190.756 56.2353 193.668 50.2792 196.289 44.9054C198.922 39.5317 201.067 35.005 202.748 31.3122C204.429 27.6194 205.262 25.2634 205.262 24.2575C205.262 22.0206 204.111 19.8102 201.821 17.6263C199.531 15.4424 196.95 13.5099 194.105 11.829C191.246 10.148 188.506 8.78473 185.885 7.71262C183.251 6.65375 181.61 6.11108 180.935 6.11108C181.61 7.11701 180.988 10.0818 179.095 15.0056C177.189 19.9293 174.648 26.0046 171.458 33.2182C168.268 40.4317 164.747 48.36 160.883 56.9633C157.56 64.3886 154.397 71.6816 151.406 78.8554L157.772 70.3845C158.884 68.8227 159.903 68.0285 160.79 68.0285C161.571 68.0285 162.272 68.7829 162.881 70.2918C163.49 71.8007 163.808 74.8582 163.808 79.4378C156.978 90.0662 150.823 99.5828 145.344 107.974C142.988 111.561 140.671 115.056 138.382 118.47C138.315 118.576 138.236 118.682 138.17 118.788C138.037 119.966 137.958 121.078 137.958 122.084C137.958 124.44 139.162 126.756 141.571 129.046C143.98 131.336 146.72 133.387 149.791 135.174C152.862 136.961 155.853 138.417 158.765 139.542C161.677 140.654 163.569 141.223 164.469 141.223C164.364 140.998 164.297 140.773 164.297 140.548C164.297 140.323 164.271 140.098 164.218 139.873C164.165 139.648 164.139 139.317 164.139 138.867C164.694 137.53 165.542 135.558 166.653 132.99C167.765 130.409 169.009 127.762 170.346 125.022C171.683 122.282 173.06 119.675 174.463 117.213C175.866 114.751 177.123 112.964 178.235 111.839C180.591 123.368 183.714 133.599 187.632 142.56C189.313 146.358 191.246 150.117 193.43 153.81C195.613 157.503 198.075 160.772 200.815 163.631C203.555 166.49 206.573 168.78 209.882 170.514C213.177 172.248 216.791 173.108 220.709 173.108C223.501 173.108 226.135 172.407 228.597 171.017C231.059 169.614 233.124 168.052 234.805 166.318C236.486 164.584 237.624 163.022 238.246 161.619C238.855 160.216 238.723 159.528 237.823 159.528C234.911 159.528 231.747 158.297 228.333 155.835C224.918 153.373 221.556 150.184 218.26 146.266C214.964 142.348 211.774 138.007 208.691 133.255C205.607 128.503 202.867 123.804 200.471 119.159C198.062 114.513 196.169 110.238 194.766 106.32C193.363 102.402 192.675 99.3313 192.675 97.0812C194.806 93.8384 197.705 90.4236 201.398 86.8367C204.534 83.8189 208.664 80.3776 213.813 76.5127C218.551 72.9522 224.388 69.3786 231.311 65.7784C231.668 64.9313 232.012 64.0974 232.356 63.2768C231.139 60.762 229.881 58.4193 228.584 56.2883L228.597 56.3148Z" fill="#FF8C1E"/>
<path d="M145.343 108.014C150.823 99.6226 156.978 90.106 163.808 79.4776C163.808 74.8847 163.503 71.8405 162.881 70.3316C162.259 68.8227 161.557 68.0682 160.79 68.0682C159.89 68.0682 158.884 68.8492 157.772 70.4242L151.405 78.8952C150.929 80.0467 150.439 81.1982 149.976 82.3365C146.561 90.6222 143.715 98.2857 141.412 105.327C139.679 110.661 138.606 115.148 138.183 118.815C138.249 118.709 138.328 118.603 138.395 118.497C140.684 115.082 143.014 111.588 145.357 108.001L145.343 108.014Z" fill="#FF8C1E"/>
<path d="M246.558 33.5755C248.914 35.5344 251.535 37.2948 254.447 38.8567C257.359 40.4317 260.178 41.6891 262.918 42.6289C265.658 43.5819 267.418 44.0584 268.212 44.0584C268.212 42.8274 268.543 41.12 269.218 38.9361C269.893 36.7521 270.727 34.4359 271.733 31.974C272.739 29.5121 273.798 27.0238 274.923 24.509C276.035 21.9942 277.041 19.7308 277.941 17.7057C278.391 16.8057 278.166 15.7468 277.266 14.5159C276.366 13.2849 275.135 12.0275 273.573 10.7437C272.011 9.45978 270.211 8.20237 268.199 6.97143C266.187 5.7405 264.255 4.65516 262.402 3.70217C260.549 2.74919 258.934 1.96827 257.531 1.34619C256.128 0.737339 255.268 0.419678 254.924 0.419678C254.924 1.20059 254.301 2.63007 253.084 4.69486C251.853 6.7729 250.476 9.14212 248.967 11.829C247.459 14.5159 246.082 17.2822 244.851 20.1411C243.62 23.0001 242.998 25.5414 242.998 27.7782C242.998 29.6842 244.176 31.6166 246.519 33.5755H246.558Z" fill="#FF8C1E"/>
<path d="M284.572 70.3315C283.95 68.8227 283.248 68.0682 282.48 68.0682C281.58 68.0682 280.574 68.8491 279.463 70.4242L243.382 118.431C244.282 112.832 245.645 107.074 247.498 101.145C249.338 95.215 251.27 89.6427 253.295 84.441C255.307 79.2393 257.213 74.7126 259 70.8477C260.787 66.9829 262.018 64.2695 262.693 62.7077C263.143 61.8076 262.918 60.7488 262.018 59.5178C261.118 58.2869 259.887 57.0295 258.325 55.7456C256.763 54.4617 254.963 53.2043 252.951 51.9734C250.939 50.7425 249.007 49.6571 247.154 48.7041C245.301 47.7511 243.686 46.9702 242.283 46.3481C240.88 45.7393 240.02 45.4216 239.676 45.4216C239.676 45.8717 239.12 47.407 237.995 50.041C236.87 52.6749 235.48 55.9706 233.799 59.9414C233.336 61.0267 232.859 62.165 232.369 63.3165C232.621 63.8327 232.872 64.3489 233.124 64.8916C232.515 65.2093 231.919 65.5137 231.324 65.8181C230.344 68.1476 229.325 70.6095 228.253 73.1905C226.241 78.0613 224.388 82.9586 222.72 87.8823C221.04 92.8061 219.65 97.5577 218.525 102.151C217.413 106.743 216.844 110.661 216.844 113.904C216.844 115.585 217.823 117.491 219.782 119.609C221.741 121.74 224.057 123.804 226.744 125.816C229.431 127.828 232.144 129.615 234.884 131.19C237.624 132.752 239.782 133.824 241.343 134.38C242.243 134.936 243.104 135.439 243.951 135.889C244.785 136.339 245.658 136.564 246.545 136.564C246.876 136.564 247.697 135.756 248.98 134.128C250.264 132.5 251.866 130.356 253.759 127.669C255.665 124.982 257.756 121.938 260.059 118.523C262.349 115.109 264.678 111.614 267.021 108.027C272.501 99.6358 278.655 90.1192 285.485 79.4908C285.485 74.8979 285.181 71.8537 284.558 70.3448L284.572 70.3315Z" fill="#FF8C1E"/>
<path d="M232.369 63.3033C232.025 64.124 231.681 64.9578 231.324 65.8049C231.919 65.5005 232.515 65.1828 233.124 64.8784C232.872 64.349 232.621 63.8328 232.369 63.3033V63.3033Z" fill="#FF8C1E"/>
</svg>
